<svg width="25px" height="25px" viewBox="-18 -29 574.66669 574" xmlns="http://www.w3.org/2000/svg"><path d="m477.570312 32.089844h-55.558593v-21.226563c0-6.203125-5.035157-11.238281-11.238281-11.238281-6.203126 0-11.238282 5.035156-11.238282 11.238281v21.226563h-189.777344v-21.226563c0-6.203125-5.035156-11.238281-11.238281-11.238281s-11.238281 5.035156-11.238281 11.238281v21.226563h-59.304688c-33.773437.039062-61.140624 27.402344-61.179687 61.175781v187.285156c0 6.203125 5.035156 11.234375 11.238281 11.234375s11.234375-5.03125 11.234375-11.234375v-73.664062h427.007813v248.460937c-.027344 21.367188-17.339844 38.679688-38.707032 38.703125h-349.59375c-21.367187-.023437-38.679687-17.335937-38.707031-38.703125v-64.925781c0-6.203125-5.03125-11.238281-11.234375-11.238281s-11.238281 5.035156-11.238281 11.238281v64.925781c.039063 33.773438 27.40625 61.140625 61.179687 61.179688h349.59375c33.773438-.039063 61.140626-27.40625 61.179688-61.179688v-362.082031c-.039062-33.773437-27.40625-61.136719-61.179688-61.175781zm-388.300781 152.320312v-91.144531c.027344-21.367187 17.339844-38.679687 38.707031-38.703125h59.304688v30.511719c-16.921875 5.523437-27.316406 22.527343-24.519531 40.109375 2.796875 17.578125 17.957031 30.515625 35.757812 30.515625s32.960938-12.9375 35.757813-30.515625c2.796875-17.582032-7.597656-34.585938-24.519532-40.109375v-30.511719h189.777344v30.511719c-16.921875 5.523437-27.316406 22.527343-24.519531 40.109375 2.796875 17.578125 17.957031 30.515625 35.757813 30.515625 17.800781 0 32.960937-12.9375 35.757812-30.515625 2.796875-17.582032-7.597656-34.585938-24.519531-40.109375v-30.511719h55.558593c21.367188.023438 38.679688 17.335938 38.707032 38.703125v91.144531zm109.25-78.65625c7.585938 0 13.734375 6.148438 13.734375 13.734375 0 7.582031-6.148437 13.734375-13.734375 13.734375-7.582031 0-13.734375-6.152344-13.734375-13.734375.011719-7.582031 6.15625-13.726562 13.734375-13.734375zm212.253907 0c7.585937 0 13.734374 6.148438 13.734374 13.734375 0 7.582031-6.148437 13.734375-13.734374 13.734375-7.582032 0-13.734376-6.152344-13.734376-13.734375.011719-7.582031 6.15625-13.726562 13.734376-13.734375zm0 0"/><path d="m193.070312 386.222656c-4.386718 4.390625-4.386718 11.5 0 15.890625 4.390626 4.390625 11.5 4.390625 15.890626 0l58.683593-58.683593c4.386719-4.386719 4.386719-11.5 0-15.886719l-58.683593-58.683594c-4.390626-4.390625-11.5-4.390625-15.890626 0-4.386718 4.390625-4.386718 11.5 0 15.890625l39.5 39.5h-221.332031c-6.203125 0-11.238281 5.03125-11.238281 11.234375 0 6.207031 5.035156 11.238281 11.238281 11.238281h221.332031zm0 0"/></svg>
